<svg xmlns="http://www.w3.org/2000/svg" viewBox="0 0 1800 1100" role="img" aria-labelledby="title desc">
  <title id="title">Плейсхолдер главного фото ТеремХаус</title>
  <desc id="desc">Атмосферный плейсхолдер для замены на реальное фото коттеджа у природы.</desc>
  <defs>
    <linearGradient id="sky" x1="0" x2="1" y1="0" y2="1">
      <stop offset="0" stop-color="#24463c"/>
      <stop offset="0.58" stop-color="#d9c3a0"/>
      <stop offset="1" stop-color="#f4eadb"/>
    </linearGradient>
  </defs>
  <rect width="1800" height="1100" fill="url(#sky)"/>
  <path d="M0 720C260 610 440 660 650 560c210-100 370-220 630-120 220 86 340 190 520 138v522H0Z" fill="#17352d" opacity=".82"/>
  <path d="M0 790c230-80 420-70 650-24 280 56 520 20 720-48 170-58 300-50 430 4v378H0Z" fill="#20211e" opacity=".55"/>
  <g transform="translate(650 470)">
    <rect x="0" y="130" width="520" height="250" rx="10" fill="#f7f1e8"/>
    <path d="M-38 150 260 0l298 150Z" fill="#8a6630"/>
    <rect x="70" y="205" width="105" height="90" rx="4" fill="#24463c"/>
    <rect x="345" y="205" width="105" height="90" rx="4" fill="#24463c"/>
    <rect x="220" y="235" width="88" height="145" rx="5" fill="#17352d"/>
    <path d="M-70 390h660" stroke="#dcc6a7" stroke-width="18" stroke-linecap="round"/>
  </g>
  <g fill="#17352d" opacity=".78">
    <path d="M210 680h80L250 540Z"/>
    <path d="M330 705h95L378 520Z"/>
    <path d="M1410 690h90l-45-180Z"/>
    <path d="M1540 700h110l-55-220Z"/>
  </g>
  <text x="92" y="980" font-family="Arial, sans-serif" font-size="42" fill="#fbf8f2">Фото: hero — заменить на реальное</text>
</svg>
